<?xml version="1.0" encoding="UTF-8"?>
<svg id="Calque_2" data-name="Calque 2" xmlns="http://www.w3.org/2000/svg" viewBox="0 0 21.32 21.13">
  <defs>
    <style>
      .cls-1 {
        fill: #1d1d1b;
      }
    </style>
  </defs>
  <g id="Calque_1-2" data-name="Calque 1">
    <g>
      <path class="cls-1" d="m10.66,21.05c-3.01,0-6.61.65-8.9-1.77C-.51,16.88.06,12.86.08,9.83.1,6.79-.2,3.41,2.44,1.33,4.84-.56,8.12.12,10.96.11c2.83-.02,6.27-.59,8.49,1.6,2.22,2.19,1.78,5.66,1.78,8.5,0,2.88.61,6.49-1.47,8.84-2.3,2.6-5.99,2.01-9.11,2.01v-.02Zm-4.63-10.5c-.01,2.59,2.06,4.67,4.65,4.67,4.08.01,6.14-5.01,3.32-7.91-2.84-2.91-7.95-.82-7.97,3.24Z"/>
      <path class="cls-1" d="m10.71,12.49c-1.96.02-2.83-3.38-.72-3.73,1.12-.18.51.74,1.14,1.37.41.41,1.68.17,1.43.97-.26.84-.98,1.38-1.85,1.39Z"/>
    </g>
  </g>
</svg>