<?xml version="1.0" encoding="UTF-8" standalone="no" ?>
<!DOCTYPE svg PUBLIC "-//W3C//DTD SVG 1.1//EN" "http://www.w3.org/Graphics/SVG/1.1/DTD/svg11.dtd">
<svg xmlns="http://www.w3.org/2000/svg" xmlns:xlink="http://www.w3.org/1999/xlink" version="1.1" width="640" height="480" viewBox="0 0 640 480" xml:space="preserve">
<desc>Created with Fabric.js 3.6.6</desc>
<defs>
</defs>
<g transform="matrix(0.59 0 0 0.62 320.88 236.28)"  >
<g style=""   >
		<g transform="matrix(0.47 0 0 0.46 -1 6.2)"  >
<circle style="stroke: none; stroke-width: 1; stroke-dasharray: none; stroke-linecap: butt; stroke-dashoffset: 0; stroke-linejoin: miter; stroke-miterlimit: 4; fill: rgb(28,138,219); fill-rule: nonzero; opacity: 1;"  cx="0" cy="0" r="400" />
</g>
		<g transform="matrix(0.47 0 0 0.46 -32.53 57.82)"  >
<linearGradient id="SVGID_SVGID_11_5" gradientUnits="userSpaceOnUse" gradientTransform="matrix(1 0 0 1 0 0)"  x1="462.46" y1="314.31" x2="97.149" y2="665.85">
<stop offset="0%" style="stop-color:rgb(0,0,0);stop-opacity: 1"/>
<stop offset="100%" style="stop-color:rgb(0,0,0);stop-opacity: 0"/>
</linearGradient>
<path style="stroke: none; stroke-width: 1; stroke-dasharray: none; stroke-linecap: butt; stroke-dashoffset: 0; stroke-linejoin: miter; stroke-miterlimit: 4; fill: url(#SVGID_SVGID_11_5); fill-rule: nonzero; opacity: 0.42;"  transform=" translate(-332.92, -512.22)" d="m 157.4 224.34 c -7.079 0 -13.395 3.1345 -17.656 8.0918 l -139.44 139.44 c -8.6956 372.5 157.81 431.29 404.67 428.11 l 252.79 -252.79 c 4.9572 -4.2598 8.0918 -10.575 8.0918 -17.654 v -281.93 c 0 -12.889 -10.376 -23.266 -23.266 -23.266 z" stroke-linecap="round" />
</g>
		<g transform="matrix(0.47 0 0 0.46 -1 0.95)"  >
<path style="stroke: none; stroke-width: 1; stroke-dasharray: none; stroke-linecap: butt; stroke-dashoffset: 0; stroke-linejoin: miter; stroke-miterlimit: 4; fill: rgb(255,255,255); fill-rule: nonzero; opacity: 1;"  transform=" translate(-400, -640.94)" d="m 157.4 476.71 c -12.889 0 -23.267 10.376 -23.267 23.265 v 281.93 c 0 12.889 10.378 23.265 23.267 23.265 h 485.2 c 12.889 0 23.265 -10.376 23.265 -23.265 v -281.93 c 0 -12.889 -10.376 -23.265 -23.265 -23.265 h -485.2 z m 385.66 23.248 h 79.878 c 9.5771 0 17.287 7.7098 17.287 17.287 c 0 9.5771 -7.7098 17.289 -17.287 17.289 h -79.878 c -9.5771 0 -17.287 -7.7119 -17.287 -17.289 s 7.7097 -17.287 17.287 -17.287 z m -142.47 5.3644 a 134.72 134.72 0 0 1 134.72 134.72 a 134.72 134.72 0 0 1 -134.72 134.72 a 134.72 134.72 0 0 1 -134.72 -134.72 a 134.72 134.72 0 0 1 134.72 -134.72 z" stroke-linecap="round" />
</g>
		<g transform="matrix(0.47 0 0 0.46 -0.72 0.53)"  >
<circle style="stroke: none; stroke-width: 1; stroke-dasharray: none; stroke-linecap: butt; stroke-dashoffset: 0; stroke-linejoin: miter; stroke-miterlimit: 4; fill: rgb(255,255,255); fill-rule: nonzero; opacity: 1;"  cx="0" cy="0" r="84.051" />
</g>
</g>
</g>
</svg>