<?xml version="1.0" encoding="UTF-8" standalone="no" ?>
<!DOCTYPE svg PUBLIC "-//W3C//DTD SVG 1.1//EN" "http://www.w3.org/Graphics/SVG/1.1/DTD/svg11.dtd">
<svg xmlns="http://www.w3.org/2000/svg" xmlns:xlink="http://www.w3.org/1999/xlink" version="1.1" width="640" height="480" viewBox="0 0 640 480" xml:space="preserve">
<desc>Created with Fabric.js 3.6.6</desc>
<defs>
</defs>
<g transform="matrix(0.63 0 0 0.67 319.82 247.42)"  >
<g style=""   >
		<g transform="matrix(1 0 0 1 -0.07 -10.99)"  >
<path style="stroke: none; stroke-width: 1; stroke-dasharray: none; stroke-linecap: butt; stroke-dashoffset: 0; stroke-linejoin: miter; stroke-miterlimit: 4; fill: rgb(254,212,1); fill-rule: nonzero; opacity: 1;"  transform=" translate(-137.4, -151.65)" d="M 0 0 C 0.81859497 -0.00571014 1.63718994 -0.01142029 2.48059082 -0.01730347 C 3.82247467 -0.01898026 3.82247467 -0.01898026 5.19146729 -0.02069092 C 6.13651123 -0.02565582 7.08155518 -0.03062073 8.05523682 -0.03573608 C 11.18691737 -0.05036062 14.31854724 -0.0571607 17.45025635 -0.06268311 C 19.62638348 -0.06843492 21.80251059 -0.07419265 23.9786377 -0.07995605 C 28.545026 -0.09046729 33.1113967 -0.09630896 37.67779541 -0.09979248 C 43.52315185 -0.10527326 49.36827489 -0.12929204 55.2135582 -0.15776443 C 59.71061884 -0.17640895 64.20762352 -0.18159742 68.70471954 -0.18312836 C 70.85924809 -0.186152 73.01377572 -0.19417076 75.1682663 -0.20731354 C 78.1865959 -0.22440942 81.20435862 -0.22248483 84.22271729 -0.21600342 C 85.10920959 -0.2252182 85.9957019 -0.23443298 86.90905762 -0.243927 C 93.43921833 -0.20010414 98.38925366 0.85731057 103.43964386 5.33242512 C 106.13719996 8.33086957 107.69571348 11.31032772 109.5892334 14.8589325 C 111.53730924 17.94171255 113.37120647 20.5069177 116.83837795 21.88433766 C 122.48840391 23.08537569 128.25146207 22.78732014 133.99224854 22.64459229 C 135.92633265 22.64423902 137.86042515 22.64967151 139.79447937 22.66043091 C 145.02902776 22.67377713 150.25994784 22.60794765 155.49380016 22.52876592 C 160.97533679 22.46057232 166.45671665 22.46934478 171.93859863 22.47087097 C 182.31696111 22.46283923 192.69383132 22.3921341 203.07171464 22.29590458 C 221.66805069 22.12573417 240.26496915 22.06653573 258.86197972 22.02376932 C 265.38820809 22.00633178 271.91361022 21.96287165 278.4395299 21.89752114 C 282.4942813 21.85988942 286.54901995 21.83794129 290.603899 21.81942368 C 292.48533356 21.80717085 294.36673738 21.78792232 296.24802208 21.76120186 C 298.81437275 21.72548373 301.37972207 21.71428393 303.94628906 21.7089386 C 305.06500936 21.68399664 305.06500936 21.68399664 306.20633006 21.6585508 C 309.84999581 21.67664955 311.81422656 22.04228955 314.90460587 24.04241085 C 318.09912355 27.29389147 318.0869713 29.13335073 318.0635376 33.58575439 C 318.06031494 34.66212158 318.05709229 35.73848877 318.05377197 36.84747314 C 318.04539307 37.97540283 318.03701416 39.10333252 318.02838135 40.26544189 C 318.02386963 41.40110596 318.01935791 42.53677002 318.01470947 43.70684814 C 318.0028975 46.51809828 317.98642642 49.3292442 317.96588135 52.14044189 C 318.6413501 52.09403564 319.31681885 52.04762939 320.01275635 51.99981689 C 327.24284263 51.70727005 327.24284263 51.70727005 330.56744385 53.69903564 C 332.49299315 57.06067898 332.42505971 59.31925828 332.34088135 63.20294189 C 332.32654053 63.96042725 332.31219971 64.7179126 332.29742432 65.49835205 C 331.76622297 86.12863848 330.17954707 106.76875352 328.64605713 127.34283447 C 328.06138129 135.33784246 327.66851823 143.32644491 327.36662292 151.33653259 C 327.08747328 158.28680265 326.60783852 165.20685807 326.05963135 172.14044189 C 324.83503585 188.17183516 323.95922225 204.21875412 323.09088135 220.27246094 C 322.92548923 223.32292804 322.75829763 226.37329498 322.59086609 229.42365074 C 322.50744147 230.94372478 322.42415934 232.46380665 322.34101868 233.98389626 C 322.13394139 237.76946061 321.92535377 241.55492997 321.71368408 245.34024048 C 321.31721475 252.46615239 320.93836847 259.59178785 320.61691284 266.72152996 C 320.46548656 270.05166818 320.30395194 273.38128125 320.14141846 276.71089363 C 320.06676586 278.29737089 319.99700851 279.88408697 319.93243408 281.47100639 C 319.84267306 283.6689667 319.73613279 285.86553893 319.6260376 288.06256104 C 319.54301392 289.93652306 319.54301392 289.93652306 319.45831299 291.8483429 C 318.80884895 296.19026515 317.433305 298.77375416 314.22980261 301.75734204 C 311.3235034 303.53289055 309.43087684 303.51534887 306.03440094 303.515172 C 304.20259726 303.52598182 304.20259726 303.52598182 302.33378744 303.53701001 C 300.97665354 303.52983274 299.61952111 303.52237383 298.26239014 303.5146637 C 296.82223037 303.51740343 295.3820726 303.52145477 293.9419198 303.52670735 C 289.97945222 303.53731579 286.01720949 303.52915132 282.05475163 303.51795685 C 277.78339347 303.50913019 273.51206523 303.51755391 269.2407074 303.52381897 C 260.87114316 303.53331798 252.501665 303.52669749 244.13210714 303.51455603 C 234.39084741 303.50094994 224.64960829 303.50257266 214.90834147 303.50468936 C 197.53053107 303.50788086 180.15276163 303.49620232 162.77496338 303.47662354 C 145.90222933 303.4576187 129.0295433 303.45053579 112.15679932 303.45611572 C 93.79521036 303.46217004 75.43364254 303.46200282 57.07205534 303.45062989 C 55.1150891 303.44942257 53.15812286 303.44821658 51.20115662 303.44701195 C 49.75675909 303.44610664 49.75675909 303.44610664 48.28318182 303.44518304 C 41.48875799 303.44129953 34.69434201 303.44169919 27.8999176 303.44359779 C 19.62278605 303.44571733 11.34569661 303.44051399 3.06857693 303.42598424 C -1.1566711 303.41872793 -5.38185773 303.41467373 -9.60711098 303.4192276 C -13.47212608 303.42329196 -17.33701418 303.41817304 -21.20200998 303.40560152 C -22.60302606 303.40266392 -24.00405405 303.4031206 -25.40506715 303.4072446 C -27.30425515 303.41232906 -29.20346509 303.40398752 -31.10263824 303.39491749 C -32.15913023 303.39405071 -33.21562222 303.39318393 -34.30412912 303.39229089 C -37.09939833 303.13441967 -38.7070055 302.68317982 -41.03411865 301.14044189 C -43.85826747 296.71743339 -44.49783664 292.95125894 -44.81781006 287.76495361 C -44.8654097 287.05183517 -44.91300934 286.33871674 -44.96205139 285.60398865 C -45.1155027 283.25996906 -45.2506319 280.91527496 -45.38568115 278.57012939 C -45.48993206 276.92585943 -45.59536977 275.28166433 -45.70193481 273.63754272 C -45.97922838 269.31260221 -46.24116078 264.98686742 -46.49963379 260.6607666 C -46.76289883 256.29407308 -47.03933325 251.92821877 -47.31536865 247.56231689 C -47.62673872 242.63549845 -47.9371043 237.70866345 -48.23544312 232.78103638 C -48.84510411 222.75354581 -49.60101732 212.74873042 -50.53411865 202.74591064 C -51.51751077 192.17250952 -52.24335067 181.63436469 -52.64178467 171.02301025 C -52.92694977 163.79701133 -53.40979055 156.59985844 -53.97161865 149.39044189 C -55.23428325 132.9865839 -56.25525676 116.57422342 -57.03411865 100.14044189 C -57.08906494 99.01138428 -57.14401123 97.88232666 -57.20062256 96.71905518 C -57.32369766 93.90085922 -57.40878884 91.08553403 -57.47161865 88.26544189 C -57.50593994 87.48821777 -57.54026123 86.71099365 -57.57562256 85.91021729 C -57.60516611 82.21600776 -57.10302171 80.24591974 -55.0692749 77.13262939 C -51.84538906 75.01656533 -51.01643609 74.90985668 -47.34442139 75.01593018 C -46.13253395 75.04289474 -46.13253395 75.04289474 -44.89616394 75.07040405 C -43.97445152 75.10507278 -43.97445152 75.10507278 -43.03411865 75.14044189 C -43.05077324 74.27386711 -43.05077324 74.27386711 -43.06776428 73.38978577 C -43.17846676 67.37152584 -43.2538307 61.35355554 -43.30877686 55.33453369 C -43.33390588 53.08897146 -43.3680148 50.8434909 -43.41131592 48.59820557 C -43.47203641 45.36858972 -43.50034497 42.14005606 -43.5223999 38.90997314 C -43.54820633 37.90771194 -43.57401276 36.90545074 -43.6006012 35.87281799 C -43.6034177 28.85796481 -43.6034177 28.85796481 -40.56610107 25.02984619 C -39.31276978 24.09459106 -39.31276978 24.09459106 -38.03411865 23.14044189 C -37.70411865 22.81044189 -37.37411865 22.48044189 -37.03411865 22.14044189 C -35.76954834 22.2622583 -35.76954834 22.2622583 -34.47943115 22.38653564 C -30.51112935 22.61529657 -27.81329972 22.44846075 -24.03411865 21.14044189 C -20.43909519 17.6478188 -18.0729794 13.29365841 -15.5692749 8.99591064 C -12.01862929 3.09132372 -6.89125311 0.02883839 0 0 Z M -24.03411865 39.14044189 C -24.03411865 50.69044189 -24.03411865 62.24044189 -24.03411865 74.14044189 C -6.75247336 74.52491144 10.52549804 74.83773192 27.81023884 75.02124882 C 35.8367451 75.10874237 43.86039745 75.22789555 51.8850708 75.4229126 C 58.88356427 75.59290946 65.87999121 75.70215276 72.88049191 75.73994631 C 76.58513151 75.76203022 80.28386274 75.81347941 83.98659706 75.93785286 C 98.82083274 77.10433036 98.82083274 77.10433036 112.25631332 72.4712944 C 115.85869634 68.5592677 118.16837058 64.21828022 119.98422527 59.24227047 C 121.33298296 56.35443886 122.67392879 54.37916838 124.96588135 52.14044189 C 128.17549515 51.50958538 128.17549515 51.50958538 132.0526123 51.50120544 C 132.76656811 51.49284977 133.48052392 51.48449409 134.21611476 51.47588521 C 136.60878575 51.45393525 138.99992476 51.46756698 141.39263916 51.48101807 C 143.10750495 51.47256637 144.82236114 51.46192295 146.53720093 51.44924927 C 151.19397374 51.42105667 155.85028666 51.42358267 160.50711918 51.43154311 C 165.37322375 51.43466398 170.23918077 51.40964615 175.10522461 51.3875885 C 184.32035238 51.35010466 193.53533257 51.33799794 202.75052905 51.3349641 C 213.24142455 51.33027797 223.73217177 51.29736899 234.22300196 51.26206625 C 255.80394488 51.1900776 277.38482766 51.15360632 298.96588135 51.14044189 C 298.96588135 47.18044189 298.96588135 43.22044189 298.96588135 39.14044189 C 192.37588135 39.14044189 85.78588135 39.14044189 -24.03411865 39.14044189 Z" stroke-linecap="round" />
</g>
		<g transform="matrix(1 0 0 1 0.94 58.2)"  >
<path style="stroke: none; stroke-width: 1; stroke-dasharray: none; stroke-linecap: butt; stroke-dashoffset: 0; stroke-linejoin: miter; stroke-miterlimit: 4; fill: rgb(254,197,54); fill-rule: nonzero; opacity: 1;"  transform=" translate(188.56, -82.7)" d="M 0 0 C 1.24622848 3.73868543 0.87623415 6.96425318 0.58203125 10.82421875 C 0.52491974 11.64458115 0.46780823 12.46494354 0.40896606 13.31016541 C 0.28225726 15.12997315 0.15312063 16.94961299 0.02194214 18.769104 C -0.34766123 23.91920895 -0.69409536 29.07085022 -1.0390625 34.22265625 C -1.11546463 35.36252991 -1.19186676 36.50240356 -1.27058411 37.67681885 C -2.32619874 53.65216119 -3.18591423 69.63904356 -4.0625 85.625 C -4.14503296 87.12714734 -4.22758278 88.62929376 -4.31015015 90.13143921 C -4.47210452 93.0782384 -4.63353331 96.02506582 -4.79469299 98.97190857 C -4.95370762 101.87645167 -5.11487681 104.78086364 -5.2776947 107.68519592 C -5.66468614 114.62391907 -6.03224914 121.56241117 -6.34496021 128.5049305 C -6.49624117 131.8333864 -6.657712 135.16131279 -6.82018852 138.48923874 C -6.89508173 140.08028208 -6.96507976 141.67156429 -7.02989388 143.26305008 C -7.12009064 145.4695996 -7.22709541 147.6747611 -7.33764648 149.88037109 C -7.3933934 151.13723724 -7.44914032 152.39410339 -7.50657654 153.6890564 C -8.15536995 158.04255509 -9.52421284 160.62565473 -12.73607016 163.61673707 C -15.64238226 165.39249607 -17.53489076 165.37490698 -20.93148041 165.37473011 C -22.15268286 165.38193665 -23.37388532 165.3891432 -24.63209391 165.39656812 C -25.9892278 165.38939085 -27.34636024 165.38193193 -28.70349121 165.3742218 C -30.14365098 165.37696154 -31.58380875 165.38101287 -33.02396154 165.38626546 C -36.98642913 165.3968739 -40.94867185 165.38870942 -44.91112971 165.37751496 C -49.18248788 165.3686883 -53.45381612 165.37711201 -57.72517395 165.38337708 C -66.09473819 165.39287609 -74.46421635 165.38625559 -82.83377421 165.37411413 C -92.57503394 165.36050805 -102.31627306 165.36213076 -112.05753988 165.36424746 C -129.43535028 165.36743896 -146.81311972 165.35576043 -164.19091797 165.33618164 C -181.06365201 165.31717681 -197.93633805 165.3100939 -214.80908203 165.31567383 C -233.17067099 165.32172815 -251.53223881 165.32156092 -269.89382601 165.310188 C -271.85079225 165.30898067 -273.80775849 165.30777469 -275.76472473 165.30657005 C -276.72765642 165.30596651 -277.6905881 165.30536298 -278.68269953 165.30474115 C -285.47712336 165.30085764 -292.27153934 165.3012573 -299.06596375 165.3031559 C -307.3430953 165.30527544 -315.62018474 165.30007209 -323.89730442 165.28554235 C -328.12255245 165.27828604 -332.34773908 165.27423184 -336.57299232 165.27878571 C -340.43800743 165.28285007 -344.30289553 165.27773114 -348.16789132 165.26515963 C -349.56890741 165.26222202 -350.9699354 165.2626787 -352.37094849 165.26680271 C -354.2701365 165.27188716 -356.16934644 165.26354563 -358.06851959 165.25447559 C -359.12501158 165.25360882 -360.18150357 165.25274204 -361.27001047 165.251849 C -364.06527967 164.99397777 -365.67288685 164.54273792 -368 163 C -370.82414882 158.57699149 -371.46371799 154.81081704 -371.78369141 149.62451172 C -371.83129105 148.91139328 -371.87889069 148.19827484 -371.92793274 147.46354675 C -372.08138405 145.11952717 -372.21651325 142.77483307 -372.3515625 140.4296875 C -372.45581341 138.78541754 -372.56125111 137.14122243 -372.66781616 135.49710083 C -372.94510973 131.17216032 -373.20704213 126.84642552 -373.46551514 122.52032471 C -373.72878018 118.15363118 -374.0052146 113.78777687 -374.28125 109.421875 C -374.59262007 104.49505656 -374.90298565 99.56822156 -375.20132446 94.64059448 C -375.65202709 87.22907397 -376.14204665 79.82558369 -376.78852844 72.427948 C -377.08382939 69.03753774 -377.32485525 65.64492503 -377.5625 62.25 C -377.68818359 60.46335937 -377.68818359 60.46335937 -377.81640625 58.640625 C -377.87699219 57.76921875 -377.93757813 56.8978125 -378 56 C -377.34 56 -376.68 56 -376 56 C -376 57.98 -376 59.96 -376 62 C -375.34 62 -374.68 62 -374 62 C -373.67 64.31 -373.34 66.62 -373 69 C -372.01 68.01 -372.01 68.01 -371 67 C -368.41121233 66.75160301 -368.41121233 66.75160301 -365.05356407 66.75390434 C -363.14043185 66.7479312 -363.14043185 66.7479312 -361.18865049 66.74183738 C -359.75999275 66.74754422 -358.33133574 66.75343543 -356.90267944 66.75949097 C -355.39540046 66.75861958 -353.88812178 66.75686984 -352.38084471 66.75431263 C -348.22375054 66.74982193 -344.06675863 66.75786631 -339.90967751 66.76786876 C -335.4325065 66.77647627 -330.95534162 66.77358502 -326.47816467 66.77206421 C -318.71610514 66.77101364 -310.95407914 66.77730814 -303.19202805 66.78853989 C -291.96930031 66.80476872 -280.74658884 66.8100002 -269.52385063 66.81251587 C -251.31732352 66.81689709 -233.11081428 66.83021776 -214.90429688 66.84912109 C -197.21451914 66.86746885 -179.52474626 66.88163075 -161.83496094 66.89013672 C -160.745233 66.89066217 -159.65550506 66.89118761 -158.53275506 66.89172898 C -153.06611035 66.89433899 -147.59946561 66.89686642 -142.13282084 66.89935279 C -96.75520151 66.92009859 -51.37760167 66.95533572 -6 67 C -6.01160156 66.36191406 -6.02320313 65.72382813 -6.03515625 65.06640625 C -6.04869141 63.82697266 -6.04869141 63.82697266 -6.0625 62.5625 C -6.07410156 61.73878906 -6.08570313 60.91507812 -6.09765625 60.06640625 C -6 58 -6 58 -5 57 C -4.84028023 54.62661361 -4.7407567 52.27881728 -4.68359375 49.90234375 C -4.6524221 48.83905602 -4.6524221 48.83905602 -4.62062073 47.75428772 C -4.55505402 45.48212695 -4.4962077 43.20984736 -4.4375 40.9375 C -4.39432151 39.40037817 -4.35070745 37.8632685 -4.30664062 36.32617188 C -4.19936551 32.5509041 -4.09811863 28.7755164 -4 25 C -3.34 25 -2.68 25 -2 25 C -1.97494385 24.27820557 -1.9498877 23.55641113 -1.92407227 22.81274414 C -1.80848698 19.562465 -1.68559226 16.31250312 -1.5625 13.0625 C -1.50352539 11.35803711 -1.50352539 11.35803711 -1.44335938 9.61914062 C -1.40146484 8.53955078 -1.35957031 7.45996094 -1.31640625 6.34765625 C -1.27974854 5.34742432 -1.24309082 4.34719238 -1.20532227 3.31665039 C -1 1 -1 1 0 0 Z" stroke-linecap="round" />
</g>
		<g transform="matrix(1 0 0 1 -4.04 12.5)"  >
<path style="stroke: none; stroke-width: 1; stroke-dasharray: none; stroke-linecap: butt; stroke-dashoffset: 0; stroke-linejoin: miter; stroke-miterlimit: 4; fill: rgb(254,203,20); fill-rule: nonzero; opacity: 1;"  transform=" translate(-187.46, -40)" d="M 0 0 C 3.06241683 4.59362525 3.12255962 8.03688422 3.09765625 13.515625 C 3.09443359 14.76601562 3.09121094 16.01640625 3.08789062 17.3046875 C 3.07951172 18.60664063 3.07113281 19.90859375 3.0625 21.25 C 3.05798828 22.56742188 3.05347656 23.88484375 3.04882812 25.2421875 C 3.03704316 28.49483741 3.02059011 31.74739584 3 35 C 3.66 35 4.32 35 5 35 C 5.06058594 36.10859375 5.12117188 37.2171875 5.18359375 38.359375 C 5.26802951 39.8229282 5.35267599 41.28646925 5.4375 42.75 C 5.49647461 43.84441406 5.49647461 43.84441406 5.55664062 44.9609375 C 5.76391535 48.46866362 6.1440061 51.57602438 7 55 C 7.33 58.63 7.66 62.26 8 66 C 129.11 66 250.22 66 375 66 C 375 67.32 375 68.64 375 70 C 374.2280508 70.00173625 373.45610159 70.0034725 372.66075999 70.00526136 C 326.95867118 70.1081796 281.25659713 70.21626821 235.55453667 70.33111694 C 230.07306035 70.34488733 224.59158392 70.35861431 219.11010742 70.37231445 C 218.01879534 70.37504276 216.92748326 70.37777106 215.80310111 70.38058204 C 198.10813294 70.4247162 180.41315833 70.4653294 162.71817888 70.50465261 C 144.57581508 70.54504799 126.43346327 70.58920107 108.29111713 70.63687855 C 97.08677648 70.66620366 85.88243678 70.69256045 74.67808055 70.71517897 C 67.00588591 70.73094717 59.33370595 70.75034905 51.66152758 70.77266841 C 47.22809605 70.78545666 42.7946759 70.79658539 38.36123085 70.80341911 C 34.30934901 70.80969985 30.25750633 70.82050169 26.20564591 70.8350333 C 24.73323296 70.83949188 23.26081369 70.84223335 21.78839428 70.84316199 C 19.80005022 70.84465702 17.81171435 70.85278704 15.8233881 70.8613348 C 14.71498446 70.86399284 13.60658081 70.86665089 12.46458918 70.86938947 C 10.05549022 70.7216113 10.05549022 70.7216113 9 72 C 8.76924918 73.34747084 8.58846937 74.70377565 8.4375 76.0625 C 8.2209375 78.0115625 8.2209375 78.0115625 8 80 C 7.67 80 7.34 80 7 80 C 7 75.05 7 70.1 7 65 C 6.34 65 5.68 65 5 65 C 2.26892733 56.26056746 1.82028883 47.66700661 1.5 38.5625 C 1.22277546 30.45160829 1.22277546 30.45160829 0.47265625 22.375 C -0.09062848 17.71875678 -0.11262633 13.12238351 -0.0625 8.4375 C -0.05798828 7.61958984 -0.05347656 6.80167969 -0.04882812 5.95898438 C -0.03721198 3.97262353 -0.01928448 1.9863012 0 0 Z" stroke-linecap="round" />
</g>
		<g transform="matrix(1 0 0 1 0.94 58.2)"  >
<path style="stroke: none; stroke-width: 1; stroke-dasharray: none; stroke-linecap: butt; stroke-dashoffset: 0; stroke-linejoin: miter; stroke-miterlimit: 4; fill: rgb(254,215,135); fill-rule: nonzero; opacity: 1;"  transform=" translate(188.56, -82.7)" d="M 0 0 C 1.24622848 3.73868543 0.87623415 6.96425318 0.58203125 10.82421875 C 0.52491974 11.64458115 0.46780823 12.46494354 0.40896606 13.31016541 C 0.28225726 15.12997315 0.15312063 16.94961299 0.02194214 18.769104 C -0.34766123 23.91920895 -0.69409536 29.07085022 -1.0390625 34.22265625 C -1.11546463 35.36252991 -1.19186676 36.50240356 -1.27058411 37.67681885 C -2.32619874 53.65216119 -3.18591423 69.63904356 -4.0625 85.625 C -4.14503296 87.12714734 -4.22758278 88.62929376 -4.31015015 90.13143921 C -4.47210452 93.0782384 -4.63353331 96.02506582 -4.79469299 98.97190857 C -4.95370762 101.87645167 -5.11487681 104.78086364 -5.2776947 107.68519592 C -5.66468614 114.62391907 -6.03224914 121.56241117 -6.34496021 128.5049305 C -6.49624117 131.8333864 -6.657712 135.16131279 -6.82018852 138.48923874 C -6.89508173 140.08028208 -6.96507976 141.67156429 -7.02989388 143.26305008 C -7.12009064 145.4695996 -7.22709541 147.6747611 -7.33764648 149.88037109 C -7.3933934 151.13723724 -7.44914032 152.39410339 -7.50657654 153.6890564 C -8.15536995 158.04255509 -9.52421284 160.62565473 -12.73607016 163.61673707 C -15.64238226 165.39249607 -17.53489076 165.37490698 -20.93148041 165.37473011 C -22.15268286 165.38193665 -23.37388532 165.3891432 -24.63209391 165.39656812 C -25.9892278 165.38939085 -27.34636024 165.38193193 -28.70349121 165.3742218 C -30.14365098 165.37696154 -31.58380875 165.38101287 -33.02396154 165.38626546 C -36.98642913 165.3968739 -40.94867185 165.38870942 -44.91112971 165.37751496 C -49.18248788 165.3686883 -53.45381612 165.37711201 -57.72517395 165.38337708 C -66.09473819 165.39287609 -74.46421635 165.38625559 -82.83377421 165.37411413 C -92.57503394 165.36050805 -102.31627306 165.36213076 -112.05753988 165.36424746 C -129.43535028 165.36743896 -146.81311972 165.35576043 -164.19091797 165.33618164 C -181.06365201 165.31717681 -197.93633805 165.3100939 -214.80908203 165.31567383 C -233.17067099 165.32172815 -251.53223881 165.32156092 -269.89382601 165.310188 C -271.85079225 165.30898067 -273.80775849 165.30777469 -275.76472473 165.30657005 C -276.72765642 165.30596651 -277.6905881 165.30536298 -278.68269953 165.30474115 C -285.47712336 165.30085764 -292.27153934 165.3012573 -299.06596375 165.3031559 C -307.3430953 165.30527544 -315.62018474 165.30007209 -323.89730442 165.28554235 C -328.12255245 165.27828604 -332.34773908 165.27423184 -336.57299232 165.27878571 C -340.43800743 165.28285007 -344.30289553 165.27773114 -348.16789132 165.26515963 C -349.56890741 165.26222202 -350.9699354 165.2626787 -352.37094849 165.26680271 C -354.2701365 165.27188716 -356.16934644 165.26354563 -358.06851959 165.25447559 C -359.12501158 165.25360882 -360.18150357 165.25274204 -361.27001047 165.251849 C -364.06527967 164.99397777 -365.67288685 164.54273792 -368 163 C -370.82414882 158.57699149 -371.46371799 154.81081704 -371.78369141 149.62451172 C -371.83129105 148.91139328 -371.87889069 148.19827484 -371.92793274 147.46354675 C -372.08138405 145.11952717 -372.21651325 142.77483307 -372.3515625 140.4296875 C -372.45581341 138.78541754 -372.56125111 137.14122243 -372.66781616 135.49710083 C -372.94510973 131.17216032 -373.20704213 126.84642552 -373.46551514 122.52032471 C -373.72878018 118.15363118 -374.0052146 113.78777687 -374.28125 109.421875 C -374.59262007 104.49505656 -374.90298565 99.56822156 -375.20132446 94.64059448 C -375.65202709 87.22907397 -376.14204665 79.82558369 -376.78852844 72.427948 C -377.08382939 69.03753774 -377.32485525 65.64492503 -377.5625 62.25 C -377.68818359 60.46335937 -377.68818359 60.46335937 -377.81640625 58.640625 C -377.87699219 57.76921875 -377.93757813 56.8978125 -378 56 C -377.34 56 -376.68 56 -376 56 C -376 57.98 -376 59.96 -376 62 C -375.34 62 -374.68 62 -374 62 C -373.97494385 62.78648926 -373.9498877 63.57297852 -373.92407227 64.38330078 C -373.80767134 67.96401494 -373.68514513 71.5444945 -373.5625 75.125 C -373.52318359 76.3625 -373.48386719 77.6 -373.44335938 78.875 C -373.40146484 80.07382812 -373.35957031 81.27265625 -373.31640625 82.5078125 C -373.27974854 83.60754395 -373.24309082 84.70727539 -373.20532227 85.84033203 C -373.00297875 88.95416056 -372.52510185 91.92664764 -372 95 C -371.8749466 96.70111301 -371.78054362 98.40479136 -371.71875 100.109375 C -371.68136719 101.02847656 -371.64398438 101.94757813 -371.60546875 102.89453125 C -371.53457991 104.81378088 -371.4642767 106.73305223 -371.39453125 108.65234375 C -371.35714844 109.56628906 -371.31976563 110.48023438 -371.28125 111.421875 C -371.25095703 112.25299805 -371.22066406 113.08412109 -371.18945312 113.94042969 C -371.12002211 116.06279239 -371.12002211 116.06279239 -370 118 C -369.84603667 119.79337077 -369.75021896 121.59189086 -369.68359375 123.390625 C -369.64161865 124.48713379 -369.59964355 125.58364258 -369.55639648 126.71337891 C -369.51716064 127.88046387 -369.4779248 129.04754883 -369.4375 130.25 C -369.3950415 131.4261084 -369.35258301 132.6022168 -369.30883789 133.81396484 C -369.03218293 141.87982076 -368.86793364 149.92927812 -369 158 C -368.34 158 -367.68 158 -367 158 C -366.67 159.32 -366.34 160.64 -366 162 C -249.51 162 -133.02 162 -13 162 C -13 160.68 -13 159.36 -13 158 C -12.01 158 -11.02 158 -10 158 C -10.01047363 157.00669678 -10.02094727 156.01339355 -10.03173828 154.98999023 C -10.06813511 151.2794154 -10.09097161 147.56885613 -10.10986328 143.8581543 C -10.11987623 142.25689026 -10.1334906 140.65564429 -10.15087891 139.05444336 C -10.17533565 136.74328124 -10.18653029 134.43236238 -10.1953125 132.12109375 C -10.20563507 131.41351425 -10.21595764 130.70593475 -10.22659302 129.97691345 C -10.22731941 126.7062139 -9.99190795 123.97376619 -9.02514648 120.83959961 C -7.48915648 115.08667873 -7.54592289 109.37700464 -7.40234375 103.4453125 C -7.3424822 101.46376689 -7.2826159 99.4822214 -7.22245884 97.50068474 C -7.14087056 94.74308822 -7.06730122 91.98530111 -6.99383545 89.22747803 C -6.86382226 84.37529568 -6.72585888 79.52335249 -6.58070374 74.67160034 C -6.50430887 72.09095707 -6.43293514 69.51015959 -6.3669281 66.92922974 C -6.33341751 65.77067474 -6.29990692 64.61211975 -6.26538086 63.41845703 C -6.2381041 62.39366241 -6.21082733 61.3688678 -6.182724 60.3130188 C -6 58 -6 58 -5 57 C -4.84028023 54.62661361 -4.7407567 52.27881728 -4.68359375 49.90234375 C -4.6524221 48.83905602 -4.6524221 48.83905602 -4.62062073 47.75428772 C -4.55505402 45.48212695 -4.4962077 43.20984736 -4.4375 40.9375 C -4.39432151 39.40037817 -4.35070745 37.8632685 -4.30664062 36.32617188 C -4.19936551 32.5509041 -4.09811863 28.7755164 -4 25 C -3.34 25 -2.68 25 -2 25 C -1.97494385 24.27820557 -1.9498877 23.55641113 -1.92407227 22.81274414 C -1.80848698 19.562465 -1.68559226 16.31250312 -1.5625 13.0625 C -1.50352539 11.35803711 -1.50352539 11.35803711 -1.44335938 9.61914062 C -1.40146484 8.53955078 -1.35957031 7.45996094 -1.31640625 6.34765625 C -1.27974854 5.34742432 -1.24309082 4.34719238 -1.20532227 3.31665039 C -1 1 -1 1 0 0 Z" stroke-linecap="round" />
</g>
		<g transform="matrix(1 0 0 1 0 -105.28)"  >
<path style="stroke: none; stroke-width: 1; stroke-dasharray: none; stroke-linecap: butt; stroke-dashoffset: 0; stroke-linejoin: miter; stroke-miterlimit: 4; fill: rgb(250,231,154); fill-rule: nonzero; opacity: 1;"  transform=" translate(-162.5, -19.22)" d="M 0 0 C 107.25 0 214.5 0 325 0 C 325 4.62 325 9.24 325 14 C 321.75015762 13.99214478 321.75015762 13.99214478 318.43466187 13.98413086 C 298.03984153 13.93863732 277.64536027 13.93726879 257.25052452 13.97665405 C 246.76469923 13.99584031 236.27926431 14.00009741 225.79345703 13.96923828 C 216.65421823 13.94237987 207.51548505 13.94350287 198.37626517 13.97825909 C 193.53668418 13.99568582 188.698009 13.99907835 183.85847092 13.96896362 C 179.30258094 13.94105601 174.74829816 13.95057909 170.19249725 13.98873711 C 168.52118649 13.99615188 166.84975053 13.98992376 165.17855453 13.96898079 C 156.46953288 13.57189096 156.46953288 13.57189096 148.67921829 16.70703125 C 146.60908778 19.3365222 145.29371504 21.65988563 144.57523918 24.93802834 C 143.19313707 29.89223781 139.87120823 33.74154123 136 37 C 131.51932957 38.39778538 127.27041354 38.27013383 122.60742188 38.13525391 C 121.26635959 38.13242885 119.92528186 38.13402496 118.58422852 38.13967896 C 114.96360828 38.14253502 111.34633708 38.0839792 107.72649193 38.01393938 C 103.93636693 37.95119392 100.14615506 37.94553425 96.35559082 37.9336853 C 89.18692906 37.90267039 82.01980221 37.82070478 74.85181475 37.72019041 C 66.68755234 37.60820427 58.5232145 37.55338168 50.3583746 37.50323606 C 33.57121089 37.39886071 16.78616009 37.21556433 0 37 C 0 24.79 0 12.58 0 0 Z M 1 1 C 1 12.55 1 24.1 1 36 C 18.28164529 36.38446955 35.55961669 36.69729002 52.84435749 36.88080692 C 60.87086376 36.96830047 68.8945161 37.08745365 76.91918945 37.2824707 C 83.91768292 37.45246757 90.91410986 37.56171086 97.91461056 37.59950441 C 101.61925016 37.62158833 105.31798139 37.67303752 109.02071571 37.79741096 C 123.8549514 38.96388846 123.8549514 38.96388846 137.29043198 34.33085251 C 140.89281499 30.41882581 143.20248923 26.07783832 145.01834393 21.10182858 C 146.36710161 18.21399697 147.70804744 16.23872649 150 14 C 153.2096138 13.36914349 153.2096138 13.36914349 157.08673096 13.36076355 C 157.80068677 13.35240787 158.51464258 13.3440522 159.25023341 13.33544332 C 161.64290441 13.31349336 164.03404341 13.32712509 166.42675781 13.34057617 C 168.1416236 13.33212447 169.85647979 13.32148106 171.57131958 13.30880737 C 176.22809239 13.28061477 180.88440532 13.28314078 185.54123783 13.29110122 C 190.4073424 13.29422208 195.27329942 13.26920426 200.13934326 13.24714661 C 209.35447104 13.20966277 218.56945122 13.19755605 227.7846477 13.1945222 C 238.2755432 13.18983608 248.76629042 13.15692709 259.25712061 13.12162435 C 280.83806353 13.04963571 302.41894632 13.01316443 324 13 C 324 9.04 324 5.08 324 1 C 217.41 1 110.82 1 1 1 Z" stroke-linecap="round" />
</g>
		<g transform="matrix(1 0 0 1 72.05 -134.5)"  >
<path style="stroke: none; stroke-width: 1; stroke-dasharray: none; stroke-linecap: butt; stroke-dashoffset: 0; stroke-linejoin: miter; stroke-miterlimit: 4; fill: rgb(254,207,64); fill-rule: nonzero; opacity: 1;"  transform=" translate(-108.55, -24)" d="M 0 0 C 3 1 3 1 4.0448066 2.55300117 C 4.52868602 3.53300287 4.52868602 3.53300287 5.02234077 4.53280258 C 9.17812876 12.48620702 9.17812876 12.48620702 15.99880743 17.93775654 C 21.66008348 19.36492742 27.46427397 19.02490603 33.25341797 18.84472656 C 35.18779801 18.84352569 37.12219347 18.84944167 39.05653381 18.8618927 C 44.28349651 18.87607557 49.50486051 18.7927797 54.73070669 18.69250584 C 60.20681637 18.60539659 65.6827698 18.61256331 71.15945435 18.61053467 C 81.52398056 18.59320038 91.88615853 18.49795402 102.24987137 18.3715198 C 117.47151968 18.18864162 132.6937955 18.10756403 147.91636848 18.04543686 C 149.0328898 18.04086731 150.14941112 18.03629776 151.29976642 18.03158975 C 153.52565625 18.02257726 155.75154715 18.01382427 157.97743905 18.00533843 C 164.49540977 17.97763247 171.01237335 17.9216942 177.52990413 17.84146261 C 181.57807108 17.79428012 185.62626858 17.76253279 189.67460442 17.73386192 C 191.55283443 17.71681344 193.43101561 17.69273063 195.30905724 17.66113472 C 197.87087336 17.61870165 200.43175383 17.60080034 202.99386597 17.58868408 C 204.1105399 17.56067258 204.1105399 17.56067258 205.24977291 17.53209519 C 208.89293423 17.54044691 210.84736832 17.90125267 213.93788338 19.90070724 C 217.1327498 23.15317118 217.12109514 24.99192347 217.09765625 29.4453125 C 217.09443359 30.52167969 217.09121094 31.59804687 217.08789062 32.70703125 C 217.07951172 33.83496094 217.07113281 34.96289062 217.0625 36.125 C 217.05798828 37.26066406 217.05347656 38.39632812 217.04882812 39.56640625 C 217.03701615 42.37765638 217.02054507 45.1888023 217 48 C 216.01 47.67 215.02 47.34 214 47 C 214.01571045 46.28344238 214.0314209 45.56688477 214.04760742 44.82861328 C 214.10981863 41.59415524 214.14894649 38.35982281 214.1875 35.125 C 214.21263672 33.99707031 214.23777344 32.86914062 214.26367188 31.70703125 C 214.27333984 30.63066406 214.28300781 29.55429688 214.29296875 28.4453125 C 214.3086792 27.45031738 214.32438965 26.45532227 214.34057617 25.43017578 C 214.22818604 24.62821777 214.1157959 23.82625977 214 23 C 210.28551383 20.52367588 207.4469519 20.71917079 203.14930725 20.74171448 C 201.93688068 20.73620092 201.93688068 20.73620092 200.69996065 20.73057598 C 197.98228325 20.7205686 195.26480935 20.72475219 192.54711914 20.72875977 C 190.60245037 20.72437432 188.65778349 20.71907283 186.71311951 20.71292114 C 182.52082736 20.70140636 178.32858586 20.69596065 174.13627815 20.69503975 C 167.51051844 20.69310274 160.88486382 20.6750702 154.25914001 20.65428162 C 137.80114624 20.60504286 121.34312387 20.57419136 104.8850708 20.55297852 C 92.0976199 20.53647127 79.31025878 20.51370063 66.5228681 20.46995777 C 59.93314001 20.44813598 53.34358229 20.44012779 46.75382054 20.44235051 C 42.65750855 20.44068698 38.56130835 20.42665826 34.46503639 20.40913773 C 32.56229208 20.40352541 30.65952471 20.40306471 28.75677872 20.40807533 C 26.16348739 20.41418956 23.57090582 20.40203456 20.97767639 20.38526917 C 19.84261134 20.39458689 19.84261134 20.39458689 18.68461567 20.40409285 C 15.53524543 20.36687419 13.32937841 20.18218711 10.54827023 18.64388943 C 8.56082801 16.53370531 8.30699743 14.83972627 8 12 C 7.34 12 6.68 12 6 12 C 5.71125 11.360625 5.4225 10.72125 5.125 10.0625 C 4.17176549 7.84793921 4.17176549 7.84793921 2 7 C 2 5.35 2 3.7 2 2 C 1.34 2 0.68 2 0 2 C 0 1.34 0 0.68 0 0 Z" stroke-linecap="round" />
</g>
		<g transform="matrix(1 0 0 1 -4.5 135.19)"  >
<path style="stroke: none; stroke-width: 1; stroke-dasharray: none; stroke-linecap: butt; stroke-dashoffset: 0; stroke-linejoin: miter; stroke-miterlimit: 4; fill: rgb(254,195,81); fill-rule: nonzero; opacity: 1;"  transform=" translate(-165, -3.69)" d="M 0 0 C 2 3 2 3 2 6 C 112.88 6 223.76 6 338 6 C 338 6.33 338 6.66 338 7 C 294.35490495 7.06861186 250.70981559 7.12150117 207.06467728 7.15319599 C 201.91624635 7.15694827 196.76781553 7.16083122 191.61938477 7.16479492 C 190.59439083 7.16558185 189.56939689 7.16636878 188.51334254 7.16717956 C 171.89961302 7.1802465 155.28591453 7.20390741 138.67220344 7.23145839 C 121.63499393 7.2594768 104.59780071 7.2761687 87.56056911 7.28226548 C 77.04101225 7.28638934 66.52154307 7.29943117 56.00201318 7.3237494 C 48.79608755 7.33956263 41.59020749 7.34441041 34.38426574 7.34050413 C 30.22191118 7.33857568 26.05971023 7.3416073 21.89738274 7.35761642 C 18.09082378 7.3721509 14.2845226 7.37299478 10.4779521 7.36269668 C 9.09701441 7.3614228 7.71606101 7.36528304 6.3351545 7.37464955 C 4.46544082 7.38659956 2.59563034 7.37844426 0.7259016 7.36914349 C -0.31491182 7.37028265 -1.35572525 7.37142181 -2.42807847 7.37259549 C -5 7 -5 7 -6.85786885 5.53942853 C -8 4 -8 4 -8 3 C -6.8553125 3.0928125 -6.8553125 3.0928125 -5.6875 3.1875 C -2.95474688 3.25898085 -2.95474688 3.25898085 -1.1875 1.5 C -0.795625 1.005 -0.40375 0.51 0 0 Z" stroke-linecap="round" />
</g>
		<g transform="matrix(1 0 0 1 182.44 57.5)"  >
<path style="stroke: none; stroke-width: 1; stroke-dasharray: none; stroke-linecap: butt; stroke-dashoffset: 0; stroke-linejoin: miter; stroke-miterlimit: 4; fill: rgb(254,225,138); fill-rule: nonzero; opacity: 1;"  transform=" translate(7.06, -82)" d="M 0 0 C 1.24622848 3.73868543 0.87623415 6.96425318 0.58203125 10.82421875 C 0.52491974 11.64458115 0.46780823 12.46494354 0.40896606 13.31016541 C 0.28225726 15.12997315 0.15312063 16.94961299 0.02194214 18.769104 C -0.34766123 23.91920895 -0.69409536 29.07085022 -1.0390625 34.22265625 C -1.11546463 35.36252991 -1.19186676 36.50240356 -1.27058411 37.67681885 C -2.32619874 53.65216119 -3.18591423 69.63904356 -4.0625 85.625 C -4.14503296 87.12714734 -4.22758278 88.62929376 -4.31015015 90.13143921 C -4.47210452 93.0782384 -4.63353331 96.02506582 -4.79469299 98.97190857 C -4.95370762 101.87645167 -5.11487681 104.78086364 -5.2776947 107.68519592 C -5.66468614 114.62391907 -6.03224914 121.56241117 -6.34496021 128.5049305 C -6.49624117 131.8333864 -6.657712 135.16131279 -6.82018852 138.48923874 C -6.89508173 140.08028208 -6.96507976 141.67156429 -7.02989388 143.26305008 C -7.12009064 145.4695996 -7.22709541 147.6747611 -7.33764648 149.88037109 C -7.3933934 151.13723724 -7.44914032 152.39410339 -7.50657654 153.6890564 C -8.02999621 157.20127893 -8.88881395 159.17190605 -11 162 C -13.1875 163.3125 -13.1875 163.3125 -15 164 C -15 163.34 -15 162.68 -15 162 C -14.34 162 -13.68 162 -13 162 C -13 160.68 -13 159.36 -13 158 C -12.01 158 -11.02 158 -10 158 C -10.01047363 157.00669678 -10.02094727 156.01339355 -10.03173828 154.98999023 C -10.06813511 151.2794154 -10.09097161 147.56885613 -10.10986328 143.8581543 C -10.11987623 142.25689026 -10.1334906 140.65564429 -10.15087891 139.05444336 C -10.17533565 136.74328124 -10.18653029 134.43236238 -10.1953125 132.12109375 C -10.20563507 131.41351425 -10.21595764 130.70593475 -10.22659302 129.97691345 C -10.22731941 126.7062139 -9.99190795 123.97376619 -9.02514648 120.83959961 C -7.48915648 115.08667873 -7.54592289 109.37700464 -7.40234375 103.4453125 C -7.3424822 101.46376689 -7.2826159 99.4822214 -7.22245884 97.50068474 C -7.14087056 94.74308822 -7.06730122 91.98530111 -6.99383545 89.22747803 C -6.86382226 84.37529568 -6.72585888 79.52335249 -6.58070374 74.67160034 C -6.50430887 72.09095707 -6.43293514 69.51015959 -6.3669281 66.92922974 C -6.31666222 65.19139725 -6.31666222 65.19139725 -6.26538086 63.41845703 C -6.2381041 62.39366241 -6.21082733 61.3688678 -6.182724 60.3130188 C -6 58 -6 58 -5 57 C -4.84028023 54.62661361 -4.7407567 52.27881728 -4.68359375 49.90234375 C -4.66281265 49.19348526 -4.64203156 48.48462677 -4.62062073 47.75428772 C -4.55505402 45.48212695 -4.4962077 43.20984736 -4.4375 40.9375 C -4.39432151 39.40037817 -4.35070745 37.8632685 -4.30664062 36.32617188 C -4.19936551 32.5509041 -4.09811863 28.7755164 -4 25 C -3.34 25 -2.68 25 -2 25 C -1.97494385 24.27820557 -1.9498877 23.55641113 -1.92407227 22.81274414 C -1.80848698 19.562465 -1.68559226 16.31250312 -1.5625 13.0625 C -1.52318359 11.92619141 -1.48386719 10.78988281 -1.44335938 9.61914062 C -1.40146484 8.53955078 -1.35957031 7.45996094 -1.31640625 6.34765625 C -1.27974854 5.34742432 -1.24309082 4.34719238 -1.20532227 3.31665039 C -1 1 -1 1 0 0 Z" stroke-linecap="round" />
</g>
		<g transform="matrix(1 0 0 1 -98.5 -152.19)"  >
<path style="stroke: none; stroke-width: 1; stroke-dasharray: none; stroke-linecap: butt; stroke-dashoffset: 0; stroke-linejoin: miter; stroke-miterlimit: 4; fill: rgb(254,222,118); fill-rule: nonzero; opacity: 1;"  transform=" translate(-38.97, -10.45)" d="M 0 0 C 0.81859497 -0.00571014 1.63718994 -0.01142029 2.48059082 -0.01730347 C 3.82247467 -0.01898026 3.82247467 -0.01898026 5.19146729 -0.02069092 C 6.13651123 -0.02565582 7.08155518 -0.03062073 8.05523682 -0.03573608 C 11.18691737 -0.05036062 14.31854724 -0.0571607 17.45025635 -0.06268311 C 19.62638348 -0.06843492 21.80251059 -0.07419265 23.9786377 -0.07995605 C 28.545026 -0.09046729 33.1113967 -0.09630896 37.67779541 -0.09979248 C 43.52315185 -0.10527326 49.36827489 -0.12929204 55.2135582 -0.15776443 C 59.71061884 -0.17640895 64.20762352 -0.18159742 68.70471954 -0.18312836 C 70.85924809 -0.186152 73.01377572 -0.19417076 75.1682663 -0.20731354 C 78.1865959 -0.22440942 81.20435862 -0.22248483 84.22271729 -0.21600342 C 85.10920959 -0.2252182 85.9957019 -0.23443298 86.90905762 -0.243927 C 92.34988619 -0.20741448 96.10948086 0.65815861 100.96588135 3.14044189 C 98.4220769 4.41234412 97.65148051 3.86037089 94.96588135 3.14044189 C 93.58034467 3.04471772 92.19115052 2.9948161 90.80236816 2.98222351 C 89.98069656 2.97243469 89.15902496 2.96264587 88.31245422 2.95256042 C 87.41981369 2.94680496 86.52717316 2.9410495 85.60748291 2.93511963 C 84.66080246 2.92522003 83.71412201 2.91532043 82.73875427 2.90512085 C 79.61136369 2.87354735 76.48395792 2.84876475 73.35650635 2.82403564 C 71.18745531 2.80346254 69.01840824 2.78246597 66.84936523 2.76106262 C 61.14151227 2.7058788 55.43362334 2.6564532 49.72570801 2.60821533 C 43.90078533 2.55797341 38.07591485 2.50230138 32.2510376 2.44708252 C 20.82269678 2.33954605 9.39431063 2.23809101 -2.03411865 2.14044189 C -2.03411865 2.80044189 -2.03411865 3.46044189 -2.03411865 4.14044189 C -2.98286865 4.42919189 -3.93161865 4.71794189 -4.90911865 5.01544189 C -8.08623444 5.90869299 -8.08623444 5.90869299 -10.03411865 8.14044189 C -9.70411865 9.13044189 -9.37411865 10.12044189 -9.03411865 11.14044189 C -9.78306396 11.21134033 -10.53200928 11.28223877 -11.3036499 11.35528564 C -14.80196775 12.3612397 -15.6667911 13.75230189 -17.72161865 16.70294189 C -18.78376959 18.21256219 -19.87925989 19.70050464 -21.03411865 21.14044189 C -21.69411865 21.14044189 -22.35411865 21.14044189 -23.03411865 21.14044189 C -21.37928162 17.62813472 -19.38767316 14.40176671 -17.28411865 11.14044189 C -16.30185303 9.59356689 -16.30185303 9.59356689 -15.29974365 8.01544189 C -11.25356079 2.88097536 -6.55407155 0.02742736 0 0 Z" stroke-linecap="round" />
</g>
		<g transform="matrix(1 0 0 1 69 -148.87)"  >
<path style="stroke: none; stroke-width: 1; stroke-dasharray: none; stroke-linecap: butt; stroke-dashoffset: 0; stroke-linejoin: miter; stroke-miterlimit: 4; fill: rgb(254,238,173); fill-rule: nonzero; opacity: 1;"  transform=" translate(-105.5, -9.63)" d="M 0 0 C 3 1 3 1 4.04354745 2.55199385 C 4.36562871 3.2049243 4.68770998 3.85785476 5.01955128 4.53057098 C 9.17889356 12.48774677 9.17889356 12.48774677 16.00504088 17.9427433 C 21.68762029 19.38695846 27.51779661 19.06821901 33.33276367 18.90820312 C 35.27527921 18.9135598 37.21778607 18.92596362 39.16021729 18.94483948 C 44.40731298 18.97603057 49.64903789 18.90924712 54.89536452 18.8242321 C 60.38728392 18.75210171 65.87889228 18.77092267 71.37117004 18.77990723 C 81.75927318 18.78317727 92.14509771 18.70519797 102.53258067 18.59768724 C 114.36326351 18.47922032 126.19361592 18.45183982 138.02481115 18.43193531 C 162.35085048 18.3889781 186.67508272 18.23220169 211 18 C 211 18.33 211 18.66 211 19 C 185.10544319 19.04667341 159.21089267 19.08196595 133.3163023 19.10362434 C 121.29361759 19.11394697 109.27095898 19.12802611 97.24829102 19.15087891 C 86.77213503 19.17078262 76.29599793 19.18370925 65.81982356 19.18817699 C 60.27025153 19.19078949 54.72073356 19.19695043 49.17117882 19.21146011 C 43.95183576 19.22499637 38.73256924 19.22923068 33.5132103 19.22621536 C 31.59391044 19.2267673 29.67460813 19.23076823 27.75532341 19.23841095 C 25.14197811 19.24831032 22.52892469 19.24598729 19.91557312 19.24050903 C 18.76723284 19.24924756 18.76723284 19.24924756 17.59569377 19.25816262 C 13.8456726 19.23680448 12.20310377 19.13540251 9 17 C 8.3125 14.375 8.3125 14.375 8 12 C 7.34 12 6.68 12 6 12 C 5.71125 11.360625 5.4225 10.72125 5.125 10.0625 C 4.17176549 7.84793921 4.17176549 7.84793921 2 7 C 2 5.35 2 3.7 2 2 C 1.34 2 0.68 2 0 2 C 0 1.34 0 0.68 0 0 Z" stroke-linecap="round" />
</g>
		<g transform="matrix(1 0 0 1 -181.5 85.5)"  >
<path style="stroke: none; stroke-width: 1; stroke-dasharray: none; stroke-linecap: butt; stroke-dashoffset: 0; stroke-linejoin: miter; stroke-miterlimit: 4; fill: rgb(254,215,132); fill-rule: nonzero; opacity: 1;"  transform=" translate(-7, -54)" d="M 0 0 C 0.66 0 1.32 0 2 0 C 2 1.98 2 3.96 2 6 C 2.66 6 3.32 6 4 6 C 4.02505615 6.78648926 4.0501123 7.57297852 4.07592773 8.38330078 C 4.19232866 11.96401494 4.31485487 15.5444945 4.4375 19.125 C 4.47681641 20.3625 4.51613281 21.6 4.55664062 22.875 C 4.61948242 24.67324219 4.61948242 24.67324219 4.68359375 26.5078125 C 4.72025146 27.60754395 4.75690918 28.70727539 4.79467773 29.84033203 C 4.99702125 32.95416056 5.47489815 35.92664764 6 39 C 6.1250534 40.70111301 6.21945638 42.40479136 6.28125 44.109375 C 6.31863281 45.02847656 6.35601562 45.94757813 6.39453125 46.89453125 C 6.46542009 48.81378088 6.5357233 50.73305223 6.60546875 52.65234375 C 6.66154297 54.02326172 6.66154297 54.02326172 6.71875 55.421875 C 6.74904297 56.25299805 6.77933594 57.08412109 6.81054688 57.94042969 C 6.87997789 60.06279239 6.87997789 60.06279239 8 62 C 8.15396333 63.79337077 8.24978104 65.59189086 8.31640625 67.390625 C 8.35838135 68.48713379 8.40035645 69.58364258 8.44360352 70.71337891 C 8.48283936 71.88046387 8.5220752 73.04754883 8.5625 74.25 C 8.6049585 75.4261084 8.64741699 76.6022168 8.69116211 77.81396484 C 8.96781707 85.87982076 9.13206636 93.92927812 9 102 C 9.66 102 10.32 102 11 102 C 11.33 103.32 11.66 104.64 12 106 C 12.66 106 13.32 106 14 106 C 14 106.66 14 107.32 14 108 C 12.1875 107.875 12.1875 107.875 10 107 C 7.25911635 102.52250866 6.53705377 98.82332619 6.21630859 93.62451172 C 6.16870895 92.91139328 6.12110931 92.19827484 6.07206726 91.46354675 C 5.91861595 89.11952717 5.78348675 86.77483307 5.6484375 84.4296875 C 5.54418659 82.78541754 5.43874889 81.14122243 5.33218384 79.49710083 C 5.05489027 75.17216032 4.79295787 70.84642552 4.53448486 66.52032471 C 4.27121982 62.15363118 3.9947854 57.78777687 3.71875 53.421875 C 3.40737993 48.49505656 3.09701435 43.56822156 2.79867554 38.64059448 C 2.34797291 31.22907397 1.85795335 23.82558369 1.21147156 16.427948 C 0.91617061 13.03753774 0.67514475 9.64492503 0.4375 6.25 C 0.31181641 4.46335937 0.31181641 4.46335937 0.18359375 2.640625 C 0.12300781 1.76921875 0.06242187 0.8978125 0 0 Z" stroke-linecap="round" />
</g>
		<g transform="matrix(1 0 0 1 170.5 -121)"  >
<path style="stroke: none; stroke-width: 1; stroke-dasharray: none; stroke-linecap: butt; stroke-dashoffset: 0; stroke-linejoin: miter; stroke-miterlimit: 4; fill: rgb(248,194,21); fill-rule: nonzero; opacity: 1;"  transform=" translate(7, -10.5)" d="M 0 0 C 0.33 0 0.66 0 1 0 C 1 6.93 1 13.86 1 21 C -4.28 21 -9.56 21 -15 21 C -15 16.38 -15 11.76 -15 7 C -10.05 7.99 -10.05 7.99 -5 9 C -4.67 9.99 -4.34 10.98 -4 12 C -3.01 12 -2.02 12 -1 12 C -0.67 8.04 -0.34 4.08 0 0 Z" stroke-linecap="round" />
</g>
		<g transform="matrix(1 0 0 1 -87.5 -95.25)"  >
<path style="stroke: none; stroke-width: 1; stroke-dasharray: none; stroke-linecap: butt; stroke-dashoffset: 0; stroke-linejoin: miter; stroke-miterlimit: 4; fill: rgb(237,221,185); fill-rule: nonzero; opacity: 1;"  transform=" translate(69, -8.25)" d="M 0 0 C 0.56933594 1.875 0.56933594 1.875 1 4 C -0.109375 6 -0.109375 6 -1.75 8 C -2.28109375 8.66 -2.8121875 9.32 -3.359375 10 C -3.90078125 10.66 -4.4421875 11.32 -5 12 C -5.41882352 12.691329 -5.83764704 13.382658 -6.26916218 14.09493637 C -8 16 -8 16 -10.41501904 16.49219131 C -11.85992954 16.48666056 -11.85992954 16.48666056 -13.33403015 16.48101807 C -14.44040833 16.48651672 -15.5467865 16.49201538 -16.68669128 16.49768066 C -17.9008522 16.48329956 -19.11501312 16.46891846 -20.3659668 16.45410156 C -21.64412262 16.45468567 -22.92227844 16.45526978 -24.23916626 16.45587158 C -27.74529947 16.45702055 -31.25088674 16.4334825 -34.75689292 16.40557575 C -38.42040483 16.38059212 -42.08392887 16.37822252 -45.74751282 16.37347412 C -52.68552179 16.36103534 -59.62327902 16.32820174 -66.56117707 16.28807616 C -74.45948885 16.24338635 -82.35781256 16.22137847 -90.25621927 16.20129442 C -106.50429361 16.15946972 -122.75211469 16.08910039 -139 16 C -139 15.67 -139 15.34 -139 15 C -138.00746641 15.01162705 -138.00746641 15.01162705 -136.99488163 15.023489 C -120.86861791 15.20755996 -104.74388901 15.31379929 -88.61662388 15.33421898 C -80.81727961 15.34595647 -73.01970404 15.38369444 -65.22094727 15.48339844 C -58.42057365 15.57027171 -51.62200689 15.60759062 -44.82108063 15.58627188 C -41.22154745 15.57669663 -37.62590475 15.59133911 -34.02704048 15.66541672 C -19.83941185 16.68460745 -19.83941185 16.68460745 -6.88746262 12.54993439 C -3.3608819 8.86394877 -1.50591344 4.82669274 0 0 Z" stroke-linecap="round" />
</g>
		<g transform="matrix(1 0 0 1 -177.73 -102)"  >
<path style="stroke: none; stroke-width: 1; stroke-dasharray: none; stroke-linecap: butt; stroke-dashoffset: 0; stroke-linejoin: miter; stroke-miterlimit: 4; fill: rgb(254,230,160); fill-rule: nonzero; opacity: 1;"  transform=" translate(16.23, -39.5)" d="M 0 0 C 0.495 0.99 0.495 0.99 1 2 C -0.08667969 2.02126953 -0.08667969 2.02126953 -1.1953125 2.04296875 C -2.16210938 2.09066406 -3.12890625 2.13835937 -4.125 2.1875 C -5.07632813 2.22230469 -6.02765625 2.25710937 -7.0078125 2.29296875 C -10.93750193 3.22152461 -13.60915844 4.77007771 -16 8 C -16.94842743 11.57257017 -16.97648222 15.08705704 -17.0234375 18.76953125 C -17.07729111 20.32374031 -17.07729111 20.32374031 -17.13223267 21.90934753 C -17.24036969 25.21023399 -17.30819672 28.51054381 -17.375 31.8125 C -17.44135354 34.05411668 -17.51033359 36.29565726 -17.58203125 38.53710938 C -17.75181081 44.02422198 -17.88853566 49.51140979 -18 55 C -19.03060547 55.14695312 -19.03060547 55.14695312 -20.08203125 55.296875 C -20.98308594 55.44640625 -21.88414063 55.5959375 -22.8125 55.75 C -23.70582031 55.88921875 -24.59914063 56.0284375 -25.51953125 56.171875 C -28.53954274 57.1801308 -29.41178247 58.28846316 -31 61 C -31.49408103 63.11122887 -31.49408103 63.11122887 -31.51171875 65.328125 C -31.56489258 66.52695313 -31.56489258 66.52695313 -31.61914062 67.75 C -31.64169922 68.575 -31.66425781 69.4 -31.6875 70.25 C -31.72166016 71.09046875 -31.75582031 71.9309375 -31.79101562 72.796875 C -31.87323568 74.86412204 -31.93830157 76.93203874 -32 79 C -32.33 79 -32.66 79 -33 79 C -33.14584064 75.77131254 -33.23424106 72.54347635 -33.3125 69.3125 C -33.35439453 68.40048828 -33.39628906 67.48847656 -33.43945312 66.54882812 C -33.5198331 62.12792965 -33.42151216 59.67728002 -31.04296875 55.85546875 C -27.84244131 53.90392763 -26.89579606 53.78754302 -23.30981445 53.8840332 C -22.50195999 53.90077591 -21.69410553 53.91751862 -20.86177063 53.93476868 C -20.24738632 53.95629501 -19.63300201 53.97782135 -19 54 C -19.01110306 53.42228348 -19.02220612 52.84456696 -19.03364563 52.24934387 C -19.14434811 46.23108394 -19.21971205 40.21311364 -19.2746582 34.1940918 C -19.29978723 31.94852956 -19.33389615 29.703049 -19.37719727 27.45776367 C -19.43791776 24.22814782 -19.46622631 20.99961416 -19.48828125 17.76953125 C -19.51408768 16.76727005 -19.5398941 15.76500885 -19.56648254 14.7323761 C -19.56929905 7.71752291 -19.56929905 7.71752291 -16.53198242 3.8894043 C -15.69642822 3.26590088 -14.86087402 2.64239746 -14 2 C -13.67 1.67 -13.34 1.34 -13 1 C -10.81707226 0.76518307 -8.62796826 0.58636677 -6.4375 0.4375 C -4.64119141 0.31181641 -4.64119141 0.31181641 -2.80859375 0.18359375 C -1.88175781 0.12300781 -0.95492187 0.06242187 0 0 Z" stroke-linecap="round" />
</g>
		<g transform="matrix(1 0 0 1 -189.51 1.5)"  >
<path style="stroke: none; stroke-width: 1; stroke-dasharray: none; stroke-linecap: butt; stroke-dashoffset: 0; stroke-linejoin: miter; stroke-miterlimit: 4; fill: rgb(253,228,125); fill-rule: nonzero; opacity: 1;"  transform=" translate(-1.99, -29)" d="M 0 0 C 2.85507892 4.28261839 3.13087311 7.61689898 3.31640625 12.70703125 C 3.35838135 13.84108398 3.40035645 14.97513672 3.44360352 16.14355469 C 3.50245728 17.95968262 3.50245728 17.95968262 3.5625 19.8125 C 3.6049585 21.05032227 3.64741699 22.28814453 3.69116211 23.56347656 C 4.05625738 35.04377614 4.10933041 46.51526092 4 58 C 3.67 58 3.34 58 3 58 C 2.07527142 51.51919385 1.73004424 45.1017205 1.5 38.5625 C 1.22277546 30.45160829 1.22277546 30.45160829 0.47265625 22.375 C -0.09062848 17.71875678 -0.11262633 13.12238351 -0.0625 8.4375 C -0.05798828 7.61958984 -0.05347656 6.80167969 -0.04882812 5.95898438 C -0.03721198 3.97262353 -0.01928448 1.9863012 0 0 Z" stroke-linecap="round" />
</g>
		<g transform="matrix(1 0 0 1 178.17 118)"  >
<path style="stroke: none; stroke-width: 1; stroke-dasharray: none; stroke-linecap: butt; stroke-dashoffset: 0; stroke-linejoin: miter; stroke-miterlimit: 4; fill: rgb(253,207,123); fill-rule: nonzero; opacity: 1;"  transform=" translate(2.33, -21.5)" d="M 0 0 C 0.33 0 0.66 0 1 0 C 1.07432418 5.03536777 1.12868401 10.07041408 1.16479492 15.10620117 C 1.1798534 16.81817184 1.20030455 18.53010411 1.22631836 20.24194336 C 1.2628319 22.70696505 1.27975562 25.17147535 1.29296875 27.63671875 C 1.30845261 28.39836838 1.32393646 29.16001801 1.33988953 29.94474792 C 1.3413183 34.48699741 0.83003123 37.39895709 -2 41 C -4.1875 42.3125 -4.1875 42.3125 -6 43 C -6 42.34 -6 41.68 -6 41 C -5.34 41 -4.68 41 -4 41 C -4 39.68 -4 38.36 -4 37 C -3.01 37 -2.02 37 -1 37 C -1.00523682 35.98574951 -1.01047363 34.97149902 -1.01586914 33.92651367 C -1.03396807 30.16382733 -1.04544994 26.40114485 -1.05493164 22.63842773 C -1.05996065 21.00984042 -1.06678465 19.38125763 -1.07543945 17.75268555 C -1.08756769 15.41193528 -1.09324263 13.0712447 -1.09765625 10.73046875 C -1.10281754 10.00224411 -1.10797882 9.27401947 -1.11329651 8.52372742 C -1.11364279 5.40397712 -0.99455604 2.98366812 0 0 Z" stroke-linecap="round" />
</g>
		<g transform="matrix(1 0 0 1 -172 -99.5)"  >
<path style="stroke: none; stroke-width: 1; stroke-dasharray: none; stroke-linecap: butt; stroke-dashoffset: 0; stroke-linejoin: miter; stroke-miterlimit: 4; fill: rgb(251,198,36); fill-rule: nonzero; opacity: 1;"  transform=" translate(-7.5, -12)" d="M 0 0 C 0.33 0 0.66 0 1 0 C 1 7.26 1 14.52 1 22 C 4.91191492 21.45925684 4.91191492 21.45925684 6.265625 19.37109375 C 6.59046875 18.73300781 6.9153125 18.09492188 7.25 17.4375 C 7.8275 16.303125 8.405 15.16875 9 14 C 10.32 14.66 11.64 15.32 13 16 C 12 19 12 19 10 20 C 12.475 20.99 12.475 20.99 15 22 C 15 22.33 15 22.66 15 23 C 10.05 23.33 5.1 23.66 0 24 C 0 16.08 0 8.16 0 0 Z" stroke-linecap="round" />
</g>
		<g transform="matrix(1 0 0 1 180.12 88)"  >
<path style="stroke: none; stroke-width: 1; stroke-dasharray: none; stroke-linecap: butt; stroke-dashoffset: 0; stroke-linejoin: miter; stroke-miterlimit: 4; fill: rgb(255,196,71); fill-rule: nonzero; opacity: 1;"  transform=" translate(1.38, -15.5)" d="M 0 0 C 0.33 0 0.66 0 1 0 C 1.57446809 21.72340426 1.57446809 21.72340426 -2 31 C -4 29 -4 29 -4.046875 25.77734375 C -3.94890625 24.51019531 -3.8509375 23.24304688 -3.75 21.9375 C -3.66234375 20.66777344 -3.5746875 19.39804687 -3.484375 18.08984375 C -3.32453125 17.07019531 -3.1646875 16.05054688 -3 15 C -2.34 14.67 -1.68 14.34 -1 14 C -0.52998967 10.72444392 -0.52998967 10.72444392 -0.375 6.9375 C -0.30023438 5.64714844 -0.22546875 4.35679687 -0.1484375 3.02734375 C -0.09945313 2.02832031 -0.05046875 1.02929688 0 0 Z" stroke-linecap="round" />
</g>
		<g transform="matrix(1 0 0 1 -170.24 -126.5)"  >
<path style="stroke: none; stroke-width: 1; stroke-dasharray: none; stroke-linecap: butt; stroke-dashoffset: 0; stroke-linejoin: miter; stroke-miterlimit: 4; fill: rgb(254,216,103); fill-rule: nonzero; opacity: 1;"  transform=" translate(8.74, -15)" d="M 0 0 C 0.33 0.66 0.66 1.32 1 2 C -0.08667969 2.02126953 -0.08667969 2.02126953 -1.1953125 2.04296875 C -2.16210938 2.09066406 -3.12890625 2.13835937 -4.125 2.1875 C -5.07632813 2.22230469 -6.02765625 2.25710937 -7.0078125 2.29296875 C -10.97430689 3.23022134 -13.74691628 4.59442364 -16 8 C -16.86375339 11.77286586 -16.88487466 15.45397658 -16.875 19.3125 C -16.895625 20.33923828 -16.91625 21.36597656 -16.9375 22.42382812 C -16.98449913 24.95003129 -17.00445095 27.47344998 -17 30 C -17.33 30 -17.66 30 -18 30 C -18.14518182 25.9170404 -18.23403347 21.83474359 -18.3125 17.75 C -18.35439453 16.59113281 -18.39628906 15.43226562 -18.43945312 14.23828125 C -18.56228205 5.73851971 -18.56228205 5.73851971 -15.90625 2.25 C -12.53252224 0.79893429 -9.85418395 0.39814885 -6.1875 0.25 C -4.44533203 0.16492188 -4.44533203 0.16492188 -2.66796875 0.078125 C -1.78753906 0.05234375 -0.90710938 0.0265625 0 0 Z" stroke-linecap="round" />
</g>
		<g transform="matrix(1 0 0 1 179 -122.5)"  >
<path style="stroke: none; stroke-width: 1; stroke-dasharray: none; stroke-linecap: butt; stroke-dashoffset: 0; stroke-linejoin: miter; stroke-miterlimit: 4; fill: rgb(250,212,94); fill-rule: nonzero; opacity: 1;"  transform=" translate(-0.5, -12)" d="M 0 0 C 0.66 0 1.32 0 2 0 C 2 7.92 2 15.84 2 24 C 1.01 23.67 0.02 23.34 -1 23 C -0.67 15.41 -0.34 7.82 0 0 Z" stroke-linecap="round" />
</g>
		<g transform="matrix(1 0 0 1 -30 -149)"  >
<path style="stroke: none; stroke-width: 1; stroke-dasharray: none; stroke-linecap: butt; stroke-dashoffset: 0; stroke-linejoin: miter; stroke-miterlimit: 4; fill: rgb(253,224,108); fill-rule: nonzero; opacity: 1;"  transform=" translate(-6.5, -9.5)" d="M 0 0 C 4.17655968 1.39218656 5.79405816 4.36099982 8.25 7.8125 C 8.72179687 8.44220703 9.19359375 9.07191406 9.6796875 9.72070312 C 11.015625 11.58203125 11.015625 11.58203125 13 15 C 12.62402344 17.21362305 12.62402344 17.21362305 12 19 C 9 17 9 17 8.3125 14.375 C 8.209375 13.59125 8.10625 12.8075 8 12 C 7.34 12 6.68 12 6 12 C 5.71125 11.360625 5.4225 10.72125 5.125 10.0625 C 4.17176549 7.84793921 4.17176549 7.84793921 2 7 C 2 5.35 2 3.7 2 2 C 1.34 2 0.68 2 0 2 C 0 1.34 0 0.68 0 0 Z" stroke-linecap="round" />
</g>
		<g transform="matrix(1 0 0 1 -187.23 -75.19)"  >
<path style="stroke: none; stroke-width: 1; stroke-dasharray: none; stroke-linecap: butt; stroke-dashoffset: 0; stroke-linejoin: miter; stroke-miterlimit: 4; fill: rgb(251,235,114); fill-rule: nonzero; opacity: 1;"  transform=" translate(3.04, -12.62)" d="M 0 0 C 0.88300781 0.04511719 1.76601562 0.09023437 2.67578125 0.13671875 C 3.67158203 0.22373047 3.67158203 0.22373047 4.6875 0.3125 C 4.6875 0.6425 4.6875 0.9725 4.6875 1.3125 C 3.65689453 1.45945313 3.65689453 1.45945313 2.60546875 1.609375 C 1.70441406 1.75890625 0.80335937 1.9084375 -0.125 2.0625 C -1.01832031 2.20171875 -1.91164063 2.3409375 -2.83203125 2.484375 C -5.34726115 3.15466546 -5.34726115 3.15466546 -7.09375 4.8125 C -8.95318897 8.62673379 -8.88533994 12.36921771 -9 16.5625 C -9.03416016 17.40296875 -9.06832031 18.2434375 -9.10351562 19.109375 C -9.18573568 21.17662204 -9.25080157 23.24453874 -9.3125 25.3125 C -9.6425 25.3125 -9.9725 25.3125 -10.3125 25.3125 C -10.45834064 22.08381254 -10.54674106 18.85597635 -10.625 15.625 C -10.66689453 14.71298828 -10.70878906 13.80097656 -10.75195312 12.86132812 C -10.83503605 8.2917672 -10.80754538 6.01970768 -8.125 2.1875 C -5.02975798 0.12400532 -3.65892282 -0.24392819 0 0 Z" stroke-linecap="round" />
</g>
		<g transform="matrix(1 0 0 1 -178.17 129.5)"  >
<path style="stroke: none; stroke-width: 1; stroke-dasharray: none; stroke-linecap: butt; stroke-dashoffset: 0; stroke-linejoin: miter; stroke-miterlimit: 4; fill: rgb(253,213,147); fill-rule: nonzero; opacity: 1;"  transform=" translate(-2.33, -10)" d="M 0 0 C 0.33 0 0.66 0 1 0 C 1 4.62 1 9.24 1 14 C 1.66 14 2.32 14 3 14 C 3.33 15.32 3.66 16.64 4 18 C 4.66 18 5.32 18 6 18 C 6 18.66 6 19.32 6 20 C 4.1875 19.875 4.1875 19.875 2 19 C -2.01601119 13.69312807 -1.51430382 7.3595646 -1 1 C -0.67 0.67 -0.34 0.34 0 0 Z" stroke-linecap="round" />
</g>
		<g transform="matrix(1 0 0 1 176 132.5)"  >
<path style="stroke: none; stroke-width: 1; stroke-dasharray: none; stroke-linecap: butt; stroke-dashoffset: 0; stroke-linejoin: miter; stroke-miterlimit: 4; fill: rgb(254,193,77); fill-rule: nonzero; opacity: 1;"  transform=" translate(-1.5, -5)" d="M 0 0 C 0.99 0.66 1.98 1.32 3 2 C 3.66 1.67 4.32 1.34 5 1 C 5 2.65 5 4.3 5 6 C 4.01 6 3.02 6 2 6 C 2 7.32 2 8.64 2 10 C 1.34 10 0.68 10 0 10 C -0.66 7.69 -1.32 5.38 -2 3 C -1.34 3 -0.68 3 0 3 C 0 2.01 0 1.02 0 0 Z" stroke-linecap="round" />
</g>
		<g transform="matrix(1 0 0 1 -186.5 40)"  >
<path style="stroke: none; stroke-width: 1; stroke-dasharray: none; stroke-linecap: butt; stroke-dashoffset: 0; stroke-linejoin: miter; stroke-miterlimit: 4; fill: rgb(254,217,107); fill-rule: nonzero; opacity: 1;"  transform=" translate(-2, -8.5)" d="M 0 0 C 0.66 0 1.32 0 2 0 C 2 1.98 2 3.96 2 6 C 2.66 6 3.32 6 4 6 C 4 9.63 4 13.26 4 17 C 3.34 17 2.68 17 2 17 C 0.84429296 13.53287889 0.67164707 10.4585044 0.4375 6.8125 C 0.35371094 5.54019531 0.26992187 4.26789063 0.18359375 2.95703125 C 0.12300781 1.98121094 0.06242187 1.00539063 0 0 Z" stroke-linecap="round" />
</g>
		<g transform="matrix(1 0 0 1 165.5 -117)"  >
<path style="stroke: none; stroke-width: 1; stroke-dasharray: none; stroke-linecap: butt; stroke-dashoffset: 0; stroke-linejoin: miter; stroke-miterlimit: 4; fill: rgb(226,182,33); fill-rule: nonzero; opacity: 1;"  transform=" translate(-3, -5.5)" d="M 0 0 C 3.36643223 3.36643223 3.31799754 4.51826954 4 9 C 4.66 9.33 5.32 9.66 6 10 C 4.02 10.33 2.04 10.66 0 11 C 0 7.37 0 3.74 0 0 Z" stroke-linecap="round" />
</g>
		<g transform="matrix(1 0 0 1 -22.5 -95.5)"  >
<path style="stroke: none; stroke-width: 1; stroke-dasharray: none; stroke-linecap: butt; stroke-dashoffset: 0; stroke-linejoin: miter; stroke-miterlimit: 4; fill: rgb(245,222,102); fill-rule: nonzero; opacity: 1;"  transform=" translate(4, -8)" d="M 0 0 C 0.66796875 1.75 0.66796875 1.75 1 4 C -0.07421875 6 -0.07421875 6 -1.6875 8 C -2.24050781 8.6909375 -2.79351562 9.381875 -3.36328125 10.09375 C -5.14784441 12.17219111 -6.98640902 14.14130063 -9 16 C -7.56691865 12.04093183 -5.66858051 8.71281819 -3.375 5.1875 C -2.74335938 4.21167969 -2.11171875 3.23585938 -1.4609375 2.23046875 C -0.73777344 1.12638672 -0.73777344 1.12638672 0 0 Z" stroke-linecap="round" />
</g>
		<g transform="matrix(1 0 0 1 -177.5 128)"  >
<path style="stroke: none; stroke-width: 1; stroke-dasharray: none; stroke-linecap: butt; stroke-dashoffset: 0; stroke-linejoin: miter; stroke-miterlimit: 4; fill: rgb(254,194,71); fill-rule: nonzero; opacity: 1;"  transform=" translate(-2, -5.5)" d="M 0 0 C 0.66 0 1.32 0 2 0 C 2.66 2.97 3.32 5.94 4 9 C 2.02 9.99 2.02 9.99 0 11 C 0 7.37 0 3.74 0 0 Z" stroke-linecap="round" />
</g>
		<g transform="matrix(1 0 0 1 -156.5 -147)"  >
<path style="stroke: none; stroke-width: 1; stroke-dasharray: none; stroke-linecap: butt; stroke-dashoffset: 0; stroke-linejoin: miter; stroke-miterlimit: 4; fill: rgb(253,222,117); fill-rule: nonzero; opacity: 1;"  transform=" translate(3, -5.5)" d="M 0 0 C 0.67578125 1.765625 0.67578125 1.765625 1 4 C -0.14453125 5.921875 -0.14453125 5.921875 -1.8125 7.75 C -2.62654297 8.67039062 -2.62654297 8.67039062 -3.45703125 9.609375 C -5 11 -5 11 -7 11 C -5.22054913 6.95579349 -2.60470327 3.53921513 0 0 Z" stroke-linecap="round" />
</g>
		<g transform="matrix(1 0 0 1 -186 54.5)"  >
<path style="stroke: none; stroke-width: 1; stroke-dasharray: none; stroke-linecap: butt; stroke-dashoffset: 0; stroke-linejoin: miter; stroke-miterlimit: 4; fill: rgb(254,221,140); fill-rule: nonzero; opacity: 1;"  transform=" translate(-1.5, -6)" d="M 0 0 C 0.99 0 1.98 0 3 0 C 3 3.96 3 7.92 3 12 C 0.97649676 8.96474514 0.67875982 7.80573798 0.375 4.3125 C 0.30023438 3.50425781 0.22546875 2.69601562 0.1484375 1.86328125 C 0.09945312 1.24839844 0.05046875 0.63351562 0 0 Z" stroke-linecap="round" />
</g>
		<g transform="matrix(1 0 0 1 -167.5 -92.5)"  >
<path style="stroke: none; stroke-width: 1; stroke-dasharray: none; stroke-linecap: butt; stroke-dashoffset: 0; stroke-linejoin: miter; stroke-miterlimit: 4; fill: rgb(250,193,3); fill-rule: nonzero; opacity: 1;"  transform=" translate(1, -3)" d="M 0 0 C 0.66 0 1.32 0 2 0 C 2 1.98 2 3.96 2 6 C -0.4375 5.625 -0.4375 5.625 -3 5 C -3.33 4.34 -3.66 3.68 -4 3 C -3.01 2.67 -2.02 2.34 -1 2 C -0.67 1.34 -0.34 0.68 0 0 Z" stroke-linecap="round" />
</g>
		<g transform="matrix(1 0 0 1 177.5 136)"  >
<path style="stroke: none; stroke-width: 1; stroke-dasharray: none; stroke-linecap: butt; stroke-dashoffset: 0; stroke-linejoin: miter; stroke-miterlimit: 4; fill: rgb(253,213,145); fill-rule: nonzero; opacity: 1;"  transform=" translate(2, -3.5)" d="M 0 0 C 0.33 0.99 0.66 1.98 1 3 C -0.28965176 4.37562854 -1.62689293 5.70766393 -3 7 C -3.66 7 -4.32 7 -5 7 C -5 6.34 -5 5.68 -5 5 C -4.34 5 -3.68 5 -3 5 C -3 3.68 -3 2.36 -3 1 C -2.01 0.67 -1.02 0.34 0 0 Z" stroke-linecap="round" />
</g>
		<g transform="matrix(1 0 0 1 176 -135.5)"  >
<path style="stroke: none; stroke-width: 1; stroke-dasharray: none; stroke-linecap: butt; stroke-dashoffset: 0; stroke-linejoin: miter; stroke-miterlimit: 4; fill: rgb(251,208,17); fill-rule: nonzero; opacity: 1;"  transform=" translate(-2.5, -3)" d="M 0 0 C 2.5 1.3125 2.5 1.3125 5 3 C 5 3.99 5 4.98 5 6 C 3.68 5.67 2.36 5.34 1 5 C 0.67 3.35 0.34 1.7 0 0 Z" stroke-linecap="round" />
</g>
		<g transform="matrix(1 0 0 1 -26 -143)"  >
<path style="stroke: none; stroke-width: 1; stroke-dasharray: none; stroke-linecap: butt; stroke-dashoffset: 0; stroke-linejoin: miter; stroke-miterlimit: 4; fill: rgb(253,213,78); fill-rule: nonzero; opacity: 1;"  transform=" translate(-2.5, -3.5)" d="M 0 0 C 1.65 0.99 3.3 1.98 5 3 C 4.67 4.32 4.34 5.64 4 7 C 1 5 1 5 0.3125 2.375 C 0.209375 1.59125 0.10625 0.8075 0 0 Z" stroke-linecap="round" />
</g>
</g>
</g>
</svg>