<?xml version="1.0" encoding="UTF-8"?>
<svg id="Calque_2" data-name="Calque 2" xmlns="http://www.w3.org/2000/svg" viewBox="0 0 19.08 24.78">
  <g id="Calque_1-2" data-name="Calque 1">
    <path d="m18,24.78H1.08c-.46-.18-.77-.51-.95-.97-.1-.27-.14-.56-.14-.85,0-3.35,0-6.7,0-10.05,0-.43-.01-.87,0-1.3.03-.95.64-1.57,1.57-1.61.2,0,.27-.08.26-.28,0-.61,0-1.22,0-1.84,0-2.33.83-4.31,2.56-5.88C6.41.16,8.79-.36,11.41.23c1.58.35,2.89,1.2,3.94,2.43,1.22,1.43,1.86,3.09,1.9,4.97.01.68.01,1.35,0,2.03,0,.24.06.33.31.33.61,0,1.04.28,1.31.82.14.28.21.57.21.88,0,3.8,0,7.6,0,11.4,0,.76-.33,1.37-1.07,1.68Zm-8.47-14.8c1.26,0,2.52,0,3.79,0,.5,0,.69.09.7-.44.02-.59.02-1.2,0-1.8-.15-3.39-3.91-5.77-6.9-3.74-1.58,1.07-2.03,2.66-2.04,4.48,0,.28-.16,1.26.04,1.44.21.18.92.05,1.19.05,1.08,0,2.15,0,3.23,0Zm-1.47,9.22h0c0,.67-.32,2.05.57,2.27.44.11,1.19.07,1.64.02.28-.03.53-.08.68-.35.19-.36.08-.94.09-1.32,0-.55,0-1.1,0-1.65,0-.49.03-.73.29-1.15.24-.4.35-.81.31-1.27-.15-1.51-1.91-2.36-3.22-1.57-.71.43-1.1,1.4-.91,2.2.1.41.45.7.55,1.09.13.5.01,1.22.01,1.73Z"/>
  </g>
</svg>