<?xml version="1.0" encoding="UTF-8" standalone="no" ?>
<!DOCTYPE svg PUBLIC "-//W3C//DTD SVG 1.1//EN" "http://www.w3.org/Graphics/SVG/1.1/DTD/svg11.dtd">
<svg xmlns="http://www.w3.org/2000/svg" xmlns:xlink="http://www.w3.org/1999/xlink" version="1.1" width="640" height="480" viewBox="0 0 640 480" xml:space="preserve">
<desc>Created with Fabric.js 3.6.6</desc>
<defs>
</defs>
<g transform="matrix(0.99 0 0 0.99 320.3 240.3)"  >
<path style="stroke: none; stroke-width: 1; stroke-dasharray: none; stroke-linecap: butt; stroke-dashoffset: 0; stroke-linejoin: miter; stroke-miterlimit: 4; fill: rgb(127,0,255); fill-rule: evenodd; opacity: 1;"  transform=" translate(-106.3, -106.3)" d="m 106.3 0 c 58.547 0 106.3 47.751 106.3 106.3 c 0 58.548 -47.752 106.3 -106.3 106.3 c -58.547 0 -106.3 -47.751 -106.3 -106.3 c 0 -58.548 47.751 -106.3 106.3 -106.3 z m -2.5166 107.58 c 3.3679 0 6.4802 1.1232 8.9837 3.0129 c -2.2797 -1.8812 -5.0674 -3.2017 -8.1845 -3.7136 c -9.4172 -1.5457 -18.359 4.8733 -19.906 14.291 c -0.048134 0.2952 -0.0877 0.5911 -0.12114 0.8863 c -8.9753 -3.4729 -14.652 -12.915 -13.034 -22.765 l 5.6127 -34.191 l 38.686 4.1758 c 0.77904 0.083099 1.5216 -0.8015 1.6474 -1.9682 c 0.12662 -1.1659 -0.4109 -2.1897 -1.19 -2.2728 l -38.451 -4.1494 l 0.4217 -2.5702 l 38.702 4.1773 c 0.7798 0.083103 1.5224 -0.80151 1.6474 -1.9682 c 0.12663 -1.1659 -0.41013 -2.1888 -1.1899 -2.2728 l -38.467 -4.1517 l 0.6043 -3.6801 l 38.536 4.1587 c 0.77904 0.083858 1.5217 -0.80087 1.6474 -1.9676 c 0.12662 -1.1658 -0.4109 -2.1896 -1.1899 -2.2734 l -38.303 -4.1339 l 0.5756 -3.5061 l 38.852 4.1936 c 0.77981 0.083099 1.5223 -0.80163 1.6474 -1.9676 c 0.1274 -1.1666 -0.41014 -2.1896 -1.1892 -2.2734 l -38.618 -4.1672 l 0.6408 -3.8999 c 4.697 -28.613 63.932 -20.855 58.921 9.6718 l -10.622 64.708 c -1.1247 6.8523 -5.5288 12.387 -11.341 15.264 c 0.031784 -2.1749 -0.35103 -4.2891 -1.082 -6.2535 c 0.46132 1.4369 0.71304 2.9687 0.71304 4.5555 c 0 6.9557 -4.7902 12.825 -11.241 14.482 v 52.912 c 0 3.2452 -2.1562 5.8992 -4.7924 5.8992 h -6.6365 c -2.6362 0 -4.7932 -2.654 -4.7932 -5.8992 v -59.231 c -1.5388 -2.3496 -2.4367 -5.1536 -2.4367 -8.1628 c 0 -8.2349 6.715 -14.95 14.95 -14.95 h 0.00013 z" stroke-linecap="round" />
</g>
</svg>