<?xml version="1.0" encoding="UTF-8"?>
<svg id="Calque_2" data-name="Calque 2" xmlns="http://www.w3.org/2000/svg" viewBox="0 0 26.86 24.65">
  <g id="Calque_1-2" data-name="Calque 1">
    <path d="m26.86,9.9c-.04-.05-.06-.13-.06-.24.01-.68.02-1.35,0-2.03-.04-1.88-.67-3.54-1.9-4.97-1.05-1.23-2.36-2.08-3.94-2.43-2.62-.58-5-.07-7.01,1.76-1.72,1.57-2.56,3.55-2.56,5.88,0,.61,0,1.22,0,1.84,0,.09-.02.15-.05.19H1.38c-.81.12-1.34.69-1.37,1.57-.02.43,0,.87,0,1.3,0,3.35,0,6.7,0,10.05,0,.29.04.58.14.85.17.46.48.79.95.97h16.92c.75-.31,1.07-.92,1.07-1.68.01-3.8,0-7.6,0-11.4,0-.31-.08-.61-.21-.88-.21-.42-.53-.69-.95-.78h-3.25c-.17-.23-.03-1.14-.03-1.41,0-1.82.46-3.4,2.04-4.48,2.99-2.03,6.75.34,6.9,3.74.03.59.03,1.2,0,1.8,0,.19-.03.29-.09.36h3.37Zm-15.55,6.99c-.25.42-.29.66-.29,1.15,0,.55,0,1.1,0,1.65,0,.39.11.96-.09,1.32-.15.27-.39.32-.68.35-.45.05-1.2.09-1.64-.02-.88-.22-.57-1.6-.57-2.27h0c0-.51.12-1.23-.01-1.73-.1-.39-.45-.68-.55-1.09-.2-.8.2-1.77.91-2.2,1.31-.8,3.07.05,3.22,1.57.05.47-.06.87-.31,1.27Z"/>
  </g>
</svg>