<?xml version="1.0" encoding="UTF-8"?>
<svg id="Calque_2" data-name="Calque 2" xmlns="http://www.w3.org/2000/svg" viewBox="0 0 16.55 12.53">
  <defs>
    <style>
      .cls-1 {
        fill: #ffffff;
      }
    </style>
  </defs>
  <g id="Calque_1-2" data-name="Calque 1">
    <g>
      <path class="cls-1" d="m8.23,12.48c-1.81,0-3.61,0-5.42,0-.5,0-1.5.19-1.91-.19-.42-.38-.32-1.38-.37-1.87C.35,8.69.05,6.93,0,5.2c-.02-.73.29-.98,1.01-1,.89-.03,1.79,0,2.69,0,.9,0,1.79,0,2.69,0,.73,0,1.76.18,2.46-.04.67-.22.92-1.07,1.58-1.29.69-.23,1.82-.03,2.55-.03.87,0,1.75-.01,2.62,0,.77.02.99.26.96,1.03-.08,1.76-.29,3.52-.44,5.28-.07.86-.02,1.85-.24,2.68-.19.74-.86.64-1.5.64-2.05,0-4.1,0-6.14,0Z"/>
      <path class="cls-1" d="m3.69.04c.67,0,1.36-.05,2.03,0,.59.04.85.34,1.24.75.45.47.7.65,1.37.66.74,0,1.48,0,2.21,0,1.38,0,2.75-.01,4.13,0,.46,0,.96.01,1.13.54.16.49-.19.59-.62.48-.43-.12-.65-.25-1.14-.25-.74,0-1.48,0-2.22,0-1.38,0-2.76,0-4.15,0-1.43,0-2.86,0-4.29,0-.43,0-1.35-.18-1.72.1-.42.32-.02.94-.2,1.33-.2.43-.69.29-.76-.15-.12-.73,0-1.58,0-2.31,0-.61.07-1.03.74-1.13.71-.11,1.52-.01,2.24-.01Z"/>
    </g>
  </g>
</svg>